<?xml version="1.0" encoding="utf-8"?>
<!-- Generator: Adobe Illustrator 13.0.0, SVG Export Plug-In . SVG Version: 6.00 Build 14948)  -->
<!DOCTYPE svg PUBLIC "-//W3C//DTD SVG 1.1//EN" "http://www.w3.org/Graphics/SVG/1.1/DTD/svg11.dtd">
<svg version="1.1" id="Capa_1" xmlns="http://www.w3.org/2000/svg" xmlns:xlink="http://www.w3.org/1999/xlink" x="0px" y="0px"
	 width="565.613px" height="122.517px" viewBox="17.512 360.361 565.613 122.517"
	 enable-background="new 17.512 360.361 565.613 122.517" xml:space="preserve">
<g>
	<polygon fill="#75AE8C" points="14.137,475.22 73.121,369.87 94.576,398.905 84.528,411.941 73.393,400.534 29.396,475.492 	"/>
	<polygon fill="#7DBF99" points="38.902,475.22 73.121,413.842 83.985,427.15 116.575,369.87 174.151,474.949 160.843,474.949 
		116.031,399.991 83.985,454.851 73.393,441 60.629,464.628 131.512,464.628 116.846,440.186 106.119,454.445 99.465,440.458 
		116.575,413.842 152.696,474.949 	"/>
	<text transform="matrix(1 0 0 1 232.4709 423.8706)" fill="#CDCCCC" font-family="'Lato-Regular'" font-size="74">CAMPING</text>
	
		<text transform="matrix(1 0 0 1 232.4709 476.8569)" fill="#CDCCCC" font-family="'Lato-Regular'" font-size="33" letter-spacing="3">THE BEST CHOISE</text>
</g>
</svg>
